<svg width="177" height="221" viewBox="0 0 177 221" fill="none" xmlns="http://www.w3.org/2000/svg">
<path d="M159.454 89.91L159.974 89.12C164.084 82.87 162.344 74.47 156.084 70.36L153.174 68.45L165.324 49.96L164.674 49.54L176.264 31.89L164.074 23.88C164.504 21.58 163.544 19.14 161.474 17.77L154.024 12.88L146.574 7.99C144.494 6.63 141.874 6.72 139.934 8.03L127.754 0L116.164 17.65L115.514 17.23L103.364 35.72L100.454 33.81C94.2043 29.7 85.8043 31.44 81.6943 37.7L81.1743 38.49C78.1043 36.47 73.9743 37.33 71.9543 40.4L42.1643 85.75C40.1443 88.82 41.0043 92.95 44.0743 94.97L6.67432 151.9C6.67432 151.9 -5.27568 170.82 2.80432 176.13L0.404316 181.56L4.52432 184.27L7.72432 179.4C10.1143 180.96 12.4143 182.44 12.4143 182.44L16.6043 180.31L16.9543 180.13C30.0443 173.23 42.8643 164.06 54.8543 152.96L56.3343 151.6C55.8743 151.51 55.4143 151.44 54.9343 151.4L47.6043 150.74C45.9843 150.59 45.0943 149.21 45.7243 147.71C46.0143 147.03 46.6143 146.55 47.3243 146.42L59.4643 144.14L81.3043 108.17L52.3543 101.78C50.3443 101.34 49.4043 99.01 50.5543 97.29C51.0843 96.49 51.9943 96.02 52.9543 95.98L64.9243 95.51L68.6943 89.77C69.1943 89 69.9643 88.51 70.8043 88.34C71.6343 88.16 72.5443 88.31 73.3043 88.82C74.8443 89.83 75.2643 91.9 74.2543 93.43L73.0943 95.19L77.1843 95.03L80.9443 89.31C81.9643 87.75 84.1143 87.26 85.6543 88.32C87.1543 89.34 87.5543 91.37 86.5543 92.89L85.3643 94.7L90.5543 94.49L103.574 75.93C105.454 73.25 107.994 71.17 110.914 69.85C112.764 69.01 114.754 69.38 116.184 70.48C117.764 71.35 118.894 73.03 118.854 75.06C118.804 78.26 117.894 81.42 116.184 84.21L104.324 103.53L106.194 108.37L107.384 106.56C108.384 105.04 110.414 104.6 111.944 105.57C113.524 106.57 113.924 108.72 112.904 110.28L109.144 116L110.624 119.82L111.784 118.06C112.794 116.52 114.854 116.09 116.394 117.1C117.164 117.6 117.654 118.37 117.824 119.21C117.994 120.04 117.854 120.94 117.344 121.71L113.574 127.45L117.894 138.62C118.234 139.52 118.174 140.54 117.644 141.35C116.524 143.08 114.014 143.15 112.804 141.48L95.4443 117.45L71.1143 151.78L73.8343 163.82C73.9943 164.52 73.7943 165.27 73.2843 165.8C72.1643 166.98 70.5443 166.71 69.7643 165.28L66.2443 158.81C66.0143 158.39 65.7643 158 65.5043 157.61L64.8343 159.51C59.4043 174.93 56.0843 190.34 54.9443 205.09L54.9243 205.49L54.6343 210.18C54.6343 210.18 56.9043 211.7 59.2843 213.27L56.0843 218.14L60.2043 220.85L64.2343 216.49C72.3143 221.8 84.9343 203.32 84.9343 203.32L122.334 146.39C125.404 148.41 129.534 147.55 131.554 144.48L161.344 99.13C163.384 96.06 162.524 91.93 159.454 89.91ZM160.804 46.98L160.154 46.55L148.004 65.05L144.234 62.57L145.684 60.37L129.724 49.89L113.764 39.41L112.314 41.61L108.544 39.13L120.694 20.64L120.044 20.21L129.094 6.44L137.404 11.9C136.974 14.2 137.934 16.64 140.014 18.01L147.464 22.9L154.914 27.79C156.994 29.15 159.614 29.06 161.554 27.76L169.864 33.22L160.804 46.98Z" fill="white"/>
</svg>
