<svg width="639" height="221" viewBox="0 0 639 221" fill="none" xmlns="http://www.w3.org/2000/svg">
<path d="M159.454 89.91L159.974 89.12C164.084 82.87 162.344 74.47 156.084 70.36L153.174 68.45L165.324 49.96L164.674 49.54L176.264 31.89L164.074 23.88C164.504 21.58 163.544 19.14 161.474 17.77L154.024 12.88L146.574 7.99C144.494 6.63 141.874 6.72 139.934 8.03L127.754 0L116.164 17.65L115.514 17.23L103.364 35.72L100.454 33.81C94.2043 29.7 85.8043 31.44 81.6943 37.7L81.1743 38.49C78.1043 36.47 73.9743 37.33 71.9543 40.4L42.1643 85.75C40.1443 88.82 41.0043 92.95 44.0743 94.97L6.67432 151.9C6.67432 151.9 -5.27568 170.82 2.80432 176.13L0.404316 181.56L4.52432 184.27L7.72432 179.4C10.1143 180.96 12.4143 182.44 12.4143 182.44L16.6043 180.31L16.9543 180.13C30.0443 173.23 42.8643 164.06 54.8543 152.96L56.3343 151.6C55.8743 151.51 55.4143 151.44 54.9343 151.4L47.6043 150.74C45.9843 150.59 45.0943 149.21 45.7243 147.71C46.0143 147.03 46.6143 146.55 47.3243 146.42L59.4643 144.14L81.3043 108.17L52.3543 101.78C50.3443 101.34 49.4043 99.01 50.5543 97.29C51.0843 96.49 51.9943 96.02 52.9543 95.98L64.9243 95.51L68.6943 89.77C69.1943 89 69.9643 88.51 70.8043 88.34C71.6343 88.16 72.5443 88.31 73.3043 88.82C74.8443 89.83 75.2643 91.9 74.2543 93.43L73.0943 95.19L77.1843 95.03L80.9443 89.31C81.9643 87.75 84.1143 87.26 85.6543 88.32C87.1543 89.34 87.5543 91.37 86.5543 92.89L85.3643 94.7L90.5543 94.49L103.574 75.93C105.454 73.25 107.994 71.17 110.914 69.85C112.764 69.01 114.754 69.38 116.184 70.48C117.764 71.35 118.894 73.03 118.854 75.06C118.804 78.26 117.894 81.42 116.184 84.21L104.324 103.53L106.194 108.37L107.384 106.56C108.384 105.04 110.414 104.6 111.944 105.57C113.524 106.57 113.924 108.72 112.904 110.28L109.144 116L110.624 119.82L111.784 118.06C112.794 116.52 114.854 116.09 116.394 117.1C117.164 117.6 117.654 118.37 117.824 119.21C117.994 120.04 117.854 120.94 117.344 121.71L113.574 127.45L117.894 138.62C118.234 139.52 118.174 140.54 117.644 141.35C116.524 143.08 114.014 143.15 112.804 141.48L95.4443 117.45L71.1143 151.78L73.8343 163.82C73.9943 164.52 73.7943 165.27 73.2843 165.8C72.1643 166.98 70.5443 166.71 69.7643 165.28L66.2443 158.81C66.0143 158.39 65.7643 158 65.5043 157.61L64.8343 159.51C59.4043 174.93 56.0843 190.34 54.9443 205.09L54.9243 205.49L54.6343 210.18C54.6343 210.18 56.9043 211.7 59.2843 213.27L56.0843 218.14L60.2043 220.85L64.2343 216.49C72.3143 221.8 84.9343 203.32 84.9343 203.32L122.334 146.39C125.404 148.41 129.534 147.55 131.554 144.48L161.344 99.13C163.384 96.06 162.524 91.93 159.454 89.91ZM160.804 46.98L160.154 46.55L148.004 65.05L144.234 62.57L145.684 60.37L129.724 49.89L113.764 39.41L112.314 41.61L108.544 39.13L120.694 20.64L120.044 20.21L129.094 6.44L137.404 11.9C136.974 14.2 137.934 16.64 140.014 18.01L147.464 22.9L154.914 27.79C156.994 29.15 159.614 29.06 161.554 27.76L169.864 33.22L160.804 46.98Z" fill="url(#paint0_linear)"/>
<path d="M311.236 42.3905L289.427 104.151L269.084 42.1552H258.553L238.225 104.151L216.416 42.3905H201L232.731 130.457H243.387L263.591 70.5099L283.808 130.457H294.464L326.181 42.3905H311.236Z" fill="black"/>
<path d="M311.236 42.3905L289.427 104.151L269.084 42.1552H258.553L238.225 104.151L216.416 42.3905H201L232.731 130.457H243.387L263.591 70.5099L283.808 130.457H294.464L326.181 42.3905H311.236Z" fill="black"/>
<path d="M349.471 62.9818C340.075 62.9818 332.962 65.6941 327.247 68.3511L323.622 70.0393L328.935 82.7152L332.921 80.681C338.581 77.7888 343.59 76.5018 349.139 76.5018C358.051 76.5018 362.881 80.0167 363.822 87.2127C359.822 86.4239 355.117 85.8427 349.029 85.8427C331.177 85.8427 319.65 94.8376 319.65 108.773V108.994C319.65 123.455 333.267 131.246 346.095 131.246C353.872 131.246 359.739 128.866 364.002 125.932V129.89H377.729V89.7589C377.729 81.7189 375.335 75.2425 370.63 70.5375C365.676 65.5834 358.369 62.9818 349.471 62.9818ZM346.413 117.74C340.352 117.74 333.82 114.903 333.82 108.648V108.427C333.82 100.027 344.213 99.1136 348.683 99.1136C354.868 99.1136 360.002 99.9301 364.099 100.843V104.137C364.099 111.886 356.501 117.74 346.413 117.74Z" fill="black"/>
<path d="M349.471 62.9818C340.075 62.9818 332.962 65.6941 327.247 68.3511L323.622 70.0393L328.935 82.7152L332.921 80.681C338.581 77.7888 343.59 76.5018 349.139 76.5018C358.051 76.5018 362.881 80.0167 363.822 87.2127C359.822 86.4239 355.117 85.8427 349.029 85.8427C331.177 85.8427 319.65 94.8376 319.65 108.773V108.994C319.65 123.455 333.267 131.246 346.095 131.246C353.872 131.246 359.739 128.866 364.002 125.932V129.89H377.729V89.7589C377.729 81.7189 375.335 75.2425 370.63 70.5375C365.676 65.5834 358.369 62.9818 349.471 62.9818ZM346.413 117.74C340.352 117.74 333.82 114.903 333.82 108.648V108.427C333.82 100.027 344.213 99.1136 348.683 99.1136C354.868 99.1136 360.002 99.9301 364.099 100.843V104.137C364.099 111.886 356.501 117.74 346.413 117.74Z" fill="black"/>
<path d="M419.838 62.5251C413.403 62.5251 407.771 64.2964 403.177 67.7421V63.8812H389.325V129.89H403.177V92.3605C403.177 82.8397 409.847 75.9206 419.049 75.9206C428.058 75.9206 433.234 81.5804 433.234 91.461V129.89H447.086V90.4369C447.072 73.7479 436.126 62.5251 419.838 62.5251Z" fill="black"/>
<path d="M419.838 62.5251C413.403 62.5251 407.771 64.2964 403.177 67.7421V63.8812H389.325V129.89H403.177V92.3605C403.177 82.8397 409.847 75.9206 419.049 75.9206C428.058 75.9206 433.234 81.5804 433.234 91.461V129.89H447.086V90.4369C447.072 73.7479 436.126 62.5251 419.838 62.5251Z" fill="black"/>
<path d="M506.771 69.555C501.18 64.933 494.538 62.5251 487.162 62.5251C471.331 62.5251 454.946 75.3809 454.946 96.8856V97.107C454.946 118.473 471.317 131.246 487.162 131.246C494.565 131.246 501.125 128.797 506.771 123.967V129.89H520.623V39H506.771V69.555ZM487.729 117.629C478.554 117.629 469.255 110.502 469.255 96.8856V96.6642C469.255 84.3896 476.686 76.1558 487.729 76.1558C497.056 76.1558 507.103 84.0437 507.103 96.7887V97.0101C507.103 109.741 497.042 117.629 487.729 117.629Z" fill="black"/>
<path d="M506.771 69.555C501.18 64.933 494.538 62.5251 487.162 62.5251C471.331 62.5251 454.946 75.3809 454.946 96.8856V97.107C454.946 118.473 471.317 131.246 487.162 131.246C494.565 131.246 501.125 128.797 506.771 123.967V129.89H520.623V39H506.771V69.555ZM487.729 117.629C478.554 117.629 469.255 110.502 469.255 96.8856V96.6642C469.255 84.3896 476.686 76.1558 487.729 76.1558C497.056 76.1558 507.103 84.0437 507.103 96.7887V97.0101C507.103 109.741 497.042 117.629 487.729 117.629Z" fill="black"/>
<path d="M578.827 110.004C573.901 115.277 568.573 117.74 562.055 117.74C554.804 117.74 546.75 113.187 544.259 103.307H590.936L591.392 99.6671C591.544 98.5047 591.544 97.965 591.544 96.8856C591.544 76.654 578.952 62.5251 560.92 62.5251C543.235 62.5251 529.383 77.5673 529.383 96.7749V96.9963C529.383 116.522 543.332 131.246 561.82 131.246C575.644 131.246 583.463 124.728 588.735 119.055L591.627 115.941L581.567 107.057L578.827 110.004ZM560.699 75.9206C570.123 75.9206 574.938 82.6045 576.613 90.0218H544.328C546.556 81.6358 552.949 75.9206 560.699 75.9206Z" fill="black"/>
<path d="M578.827 110.004C573.901 115.277 568.573 117.74 562.055 117.74C554.804 117.74 546.75 113.187 544.259 103.307H590.936L591.392 99.6671C591.544 98.5047 591.544 97.965 591.544 96.8856C591.544 76.654 578.952 62.5251 560.92 62.5251C543.235 62.5251 529.383 77.5673 529.383 96.7749V96.9963C529.383 116.522 543.332 131.246 561.82 131.246C575.644 131.246 583.463 124.728 588.735 119.055L591.627 115.941L581.567 107.057L578.827 110.004ZM560.699 75.9206C570.123 75.9206 574.938 82.6045 576.613 90.0218H544.328C546.556 81.6358 552.949 75.9206 560.699 75.9206Z" fill="black"/>
<path d="M634.858 62.9818C626.86 62.6912 619.179 65.7771 613.284 71.3678V63.8813H599.432V129.89H613.284V102.089C613.284 85.0262 623.76 77.3874 634.139 77.3874H638.857V63.134L634.858 62.9818Z" fill="black"/>
<path d="M634.858 62.9818C626.86 62.6912 619.179 65.7771 613.284 71.3678V63.8813H599.432V129.89H613.284V102.089C613.284 85.0262 623.76 77.3874 634.139 77.3874H638.857V63.134L634.858 62.9818Z" fill="black"/>
<path d="M201 152.709H203.007L212.458 174.934L221.951 152.709H223.847L213.219 177.051H211.628L201 152.709Z" fill="black"/>
<path d="M201 152.709H203.007L212.458 174.934L221.951 152.709H223.847L213.219 177.051H211.628L201 152.709Z" fill="black"/>
<path d="M229.701 152.363H231.804V154.674H229.701V152.363ZM229.908 159.269H231.597V176.871H229.908V159.269Z" fill="black"/>
<path d="M229.701 152.363H231.804V154.674H229.701V152.363ZM229.908 159.269H231.597V176.871H229.908V159.269Z" fill="black"/>
<path d="M238.225 159.269H240.19L246.846 174.975L253.572 159.269H255.468L247.566 177.009H246.113L238.225 159.269Z" fill="black"/>
<path d="M238.225 159.269H240.19L246.846 174.975L253.572 159.269H255.468L247.566 177.009H246.113L238.225 159.269Z" fill="black"/>
<path d="M259.563 171.765V171.695C259.563 168.042 262.705 165.966 267.258 165.966C269.707 165.966 271.395 166.271 273.097 166.727V165.966C273.097 162.41 270.925 160.583 267.299 160.583C265.154 160.583 263.397 161.164 261.778 161.995L261.155 160.514C263.092 159.615 264.988 158.992 267.396 158.992C269.776 158.992 271.672 159.642 272.959 160.929C274.135 162.105 274.758 163.725 274.758 165.897V176.871H273.097V173.937C271.893 175.626 269.721 177.286 266.372 177.286C263.078 177.286 259.563 175.432 259.563 171.765ZM273.125 170.284V168.277C271.644 167.904 269.679 167.489 267.147 167.489C263.424 167.489 261.349 169.149 261.349 171.599V171.668C261.349 174.228 263.77 175.709 266.455 175.709C270.053 175.709 273.125 173.494 273.125 170.284Z" fill="black"/>
<path d="M259.563 171.765V171.695C259.563 168.042 262.705 165.966 267.258 165.966C269.707 165.966 271.395 166.271 273.097 166.727V165.966C273.097 162.41 270.925 160.583 267.299 160.583C265.154 160.583 263.397 161.164 261.778 161.995L261.155 160.514C263.092 159.615 264.988 158.992 267.396 158.992C269.776 158.992 271.672 159.642 272.959 160.929C274.135 162.105 274.758 163.725 274.758 165.897V176.871H273.097V173.937C271.893 175.626 269.721 177.286 266.372 177.286C263.078 177.286 259.563 175.432 259.563 171.765ZM273.125 170.284V168.277C271.644 167.904 269.679 167.489 267.147 167.489C263.424 167.489 261.349 169.149 261.349 171.599V171.668C261.349 174.228 263.77 175.709 266.455 175.709C270.053 175.709 273.125 173.494 273.125 170.284Z" fill="black"/>
<path d="M294.713 159.269H296.402V162.548C297.578 160.472 299.543 158.853 302.753 158.853C307.209 158.853 309.797 161.898 309.797 166.105V176.871H308.109V166.409C308.109 162.783 306.075 160.403 302.518 160.403C299.072 160.403 296.402 163.033 296.402 166.686V176.871H294.713V159.269V159.269Z" fill="black"/>
<path d="M294.713 159.269H296.402V162.548C297.578 160.472 299.543 158.853 302.753 158.853C307.209 158.853 309.797 161.898 309.797 166.105V176.871H308.109V166.409C308.109 162.783 306.075 160.403 302.518 160.403C299.072 160.403 296.402 163.033 296.402 166.686V176.871H294.713V159.269V159.269Z" fill="black"/>
<path d="M316.426 168.139V168.07C316.426 163.129 320.259 158.853 325.504 158.853C330.721 158.853 334.512 163.06 334.512 168.001V168.07C334.512 173.01 330.679 177.286 325.435 177.286C320.231 177.286 316.426 173.079 316.426 168.139ZM332.686 168.139V168.07C332.686 163.821 329.503 160.445 325.435 160.445C321.255 160.445 318.252 163.863 318.252 168.001V168.07C318.252 172.318 321.435 175.695 325.504 175.695C329.683 175.708 332.686 172.29 332.686 168.139Z" fill="black"/>
<path d="M316.426 168.139V168.07C316.426 163.129 320.259 158.853 325.504 158.853C330.721 158.853 334.512 163.06 334.512 168.001V168.07C334.512 173.01 330.679 177.286 325.435 177.286C320.231 177.286 316.426 173.079 316.426 168.139ZM332.686 168.139V168.07C332.686 163.821 329.503 160.445 325.435 160.445C321.255 160.445 318.252 163.863 318.252 168.001V168.07C318.252 172.318 321.435 175.695 325.504 175.695C329.683 175.708 332.686 172.29 332.686 168.139Z" fill="black"/>
<path d="M338.664 159.269H340.629L347.285 174.975L354.01 159.269H355.906L348.004 177.009H346.551L338.664 159.269Z" fill="black"/>
<path d="M338.664 159.269H340.629L347.285 174.975L354.01 159.269H355.906L348.004 177.009H346.551L338.664 159.269Z" fill="black"/>
<path d="M360.002 171.765V171.695C360.002 168.042 363.143 165.966 367.696 165.966C370.145 165.966 371.834 166.271 373.536 166.727V165.966C373.536 162.41 371.363 160.583 367.738 160.583C365.593 160.583 363.835 161.164 362.216 161.995L361.593 160.514C363.531 159.615 365.427 158.992 367.834 158.992C370.215 158.992 372.11 159.642 373.397 160.929C374.574 162.105 375.196 163.725 375.196 165.897V176.871H373.536V173.937C372.332 175.626 370.159 177.286 366.81 177.286C363.531 177.286 360.002 175.432 360.002 171.765ZM373.564 170.284V168.277C372.083 167.904 370.118 167.489 367.585 167.489C363.863 167.489 361.787 169.149 361.787 171.599V171.668C361.787 174.228 364.209 175.709 366.893 175.709C370.491 175.709 373.564 173.494 373.564 170.284Z" fill="black"/>
<path d="M360.002 171.765V171.695C360.002 168.042 363.143 165.966 367.696 165.966C370.145 165.966 371.834 166.271 373.536 166.727V165.966C373.536 162.41 371.363 160.583 367.738 160.583C365.593 160.583 363.835 161.164 362.216 161.995L361.593 160.514C363.531 159.615 365.427 158.992 367.834 158.992C370.215 158.992 372.11 159.642 373.397 160.929C374.574 162.105 375.196 163.725 375.196 165.897V176.871H373.536V173.937C372.332 175.626 370.159 177.286 366.81 177.286C363.531 177.286 360.002 175.432 360.002 171.765ZM373.564 170.284V168.277C372.083 167.904 370.118 167.489 367.585 167.489C363.863 167.489 361.787 169.149 361.787 171.599V171.668C361.787 174.228 364.209 175.709 366.893 175.709C370.491 175.709 373.564 173.494 373.564 170.284Z" fill="black"/>
<path d="M381.521 174.671L382.517 173.328C384.455 174.809 386.586 175.639 388.828 175.639C391.208 175.639 393.076 174.325 393.076 172.291V172.221C393.076 170.146 390.862 169.384 388.412 168.706C385.548 167.876 382.379 167.018 382.379 163.877V163.808C382.379 160.985 384.759 158.937 388.177 158.937C390.281 158.937 392.661 159.698 394.418 160.874L393.519 162.285C391.9 161.22 389.962 160.528 388.094 160.528C385.672 160.528 384.095 161.843 384.095 163.6V163.669C384.095 165.634 386.475 166.368 388.994 167.087C391.817 167.876 394.792 168.914 394.792 172.028V172.097C394.792 175.238 392.107 177.245 388.717 177.245C386.171 177.217 383.375 176.193 381.521 174.671Z" fill="black"/>
<path d="M381.521 174.671L382.517 173.328C384.455 174.809 386.586 175.639 388.828 175.639C391.208 175.639 393.076 174.325 393.076 172.291V172.221C393.076 170.146 390.862 169.384 388.412 168.706C385.548 167.876 382.379 167.018 382.379 163.877V163.808C382.379 160.985 384.759 158.937 388.177 158.937C390.281 158.937 392.661 159.698 394.418 160.874L393.519 162.285C391.9 161.22 389.962 160.528 388.094 160.528C385.672 160.528 384.095 161.843 384.095 163.6V163.669C384.095 165.634 386.475 166.368 388.994 167.087C391.817 167.876 394.792 168.914 394.792 172.028V172.097C394.792 175.238 392.107 177.245 388.717 177.245C386.171 177.217 383.375 176.193 381.521 174.671Z" fill="black"/>
<path d="M412.864 168.111V168.042C412.864 162.936 416.448 158.853 421.222 158.853C426.162 158.853 429.304 162.853 429.304 168.07C429.304 168.388 429.304 168.485 429.276 168.762H414.677C414.995 173.148 418.122 175.695 421.582 175.695C424.308 175.695 426.176 174.491 427.629 172.927L428.805 173.965C427.006 175.902 424.903 177.272 421.527 177.272C416.863 177.286 412.864 173.605 412.864 168.111ZM427.463 167.253C427.228 163.697 425.18 160.417 421.139 160.417C417.652 160.417 414.967 163.351 414.649 167.253H427.463Z" fill="black"/>
<path d="M412.864 168.111V168.042C412.864 162.936 416.448 158.853 421.222 158.853C426.162 158.853 429.304 162.853 429.304 168.07C429.304 168.388 429.304 168.485 429.276 168.762H414.677C414.995 173.148 418.122 175.695 421.582 175.695C424.308 175.695 426.176 174.491 427.629 172.927L428.805 173.965C427.006 175.902 424.903 177.272 421.527 177.272C416.863 177.286 412.864 173.605 412.864 168.111ZM427.463 167.253C427.228 163.697 425.18 160.417 421.139 160.417C417.652 160.417 414.967 163.351 414.649 167.253H427.463Z" fill="black"/>
<path d="M441.592 166.728L447.57 159.269H449.605L442.672 167.862L449.881 176.871H447.778L441.565 169.039L435.351 176.871H433.317L440.499 167.89L433.594 159.255H435.697L441.592 166.728Z" fill="black"/>
<path d="M441.592 166.728L447.57 159.269H449.605L442.672 167.862L449.881 176.871H447.778L441.565 169.039L435.351 176.871H433.317L440.499 167.89L433.594 159.255H435.697L441.592 166.728Z" fill="black"/>
<path d="M456.399 159.269H458.088V163.199C459.61 160.888 461.852 158.853 465.339 158.853C469.587 158.853 473.905 162.271 473.905 168.001V168.07C473.905 173.799 469.587 177.286 465.339 177.286C461.81 177.286 459.541 175.279 458.088 173.079V182.392H456.399V159.269ZM472.078 168.139V168.07C472.078 163.448 468.868 160.472 465.173 160.472C461.52 160.472 457.991 163.545 457.991 168.028V168.097C457.991 172.623 461.506 175.653 465.173 175.653C469.006 175.667 472.078 172.872 472.078 168.139Z" fill="black"/>
<path d="M456.399 159.269H458.088V163.199C459.61 160.888 461.852 158.853 465.339 158.853C469.587 158.853 473.905 162.271 473.905 168.001V168.07C473.905 173.799 469.587 177.286 465.339 177.286C461.81 177.286 459.541 175.279 458.088 173.079V182.392H456.399V159.269ZM472.078 168.139V168.07C472.078 163.448 468.868 160.472 465.173 160.472C461.52 160.472 457.991 163.545 457.991 168.028V168.097C457.991 172.623 461.506 175.653 465.173 175.653C469.006 175.667 472.078 172.872 472.078 168.139Z" fill="black"/>
<path d="M479.746 168.111V168.042C479.746 162.936 483.33 158.853 488.104 158.853C493.044 158.853 496.186 162.853 496.186 168.07C496.186 168.388 496.186 168.485 496.158 168.762H481.558C481.877 173.148 485.004 175.695 488.464 175.695C491.19 175.695 493.058 174.491 494.511 172.927L495.687 173.965C493.888 175.902 491.785 177.272 488.408 177.272C483.745 177.286 479.746 173.605 479.746 168.111ZM494.345 167.253C494.11 163.697 492.062 160.417 488.021 160.417C484.534 160.417 481.849 163.351 481.531 167.253H494.345Z" fill="black"/>
<path d="M479.746 168.111V168.042C479.746 162.936 483.33 158.853 488.104 158.853C493.044 158.853 496.186 162.853 496.186 168.07C496.186 168.388 496.186 168.485 496.158 168.762H481.558C481.877 173.148 485.004 175.695 488.464 175.695C491.19 175.695 493.058 174.491 494.511 172.927L495.687 173.965C493.888 175.902 491.785 177.272 488.408 177.272C483.745 177.286 479.746 173.605 479.746 168.111ZM494.345 167.253C494.11 163.697 492.062 160.417 488.021 160.417C484.534 160.417 481.849 163.351 481.531 167.253H494.345Z" fill="black"/>
<path d="M502.882 159.269H504.571V164.278C505.954 161.137 508.888 158.853 512.375 158.992V160.86H512.196C508.127 160.86 504.571 163.932 504.571 169.661V176.871H502.882V159.269Z" fill="black"/>
<path d="M502.882 159.269H504.571V164.278C505.954 161.137 508.888 158.853 512.375 158.992V160.86H512.196C508.127 160.86 504.571 163.932 504.571 169.661V176.871H502.882V159.269Z" fill="black"/>
<path d="M518.479 152.363H520.582V154.674H518.479V152.363ZM518.686 159.269H520.374V176.871H518.686V159.269Z" fill="black"/>
<path d="M518.479 152.363H520.582V154.674H518.479V152.363ZM518.686 159.269H520.374V176.871H518.686V159.269Z" fill="black"/>
<path d="M527.597 168.111V168.042C527.597 162.936 531.181 158.853 535.956 158.853C540.896 158.853 544.037 162.853 544.037 168.07C544.037 168.388 544.037 168.485 544.009 168.762H529.41C529.728 173.148 532.856 175.695 536.315 175.695C539.041 175.695 540.91 174.491 542.363 172.927L543.539 173.965C541.74 175.902 539.636 177.272 536.26 177.272C531.596 177.286 527.597 173.605 527.597 168.111ZM542.197 167.253C541.961 163.697 539.913 160.417 535.872 160.417C532.385 160.417 529.701 163.351 529.382 167.253H542.197ZM535.264 152.128H536.647L540.093 156.335H538.474L535.914 153.982L533.354 156.335H531.804L535.264 152.128Z" fill="black"/>
<path d="M527.597 168.111V168.042C527.597 162.936 531.181 158.853 535.956 158.853C540.896 158.853 544.037 162.853 544.037 168.07C544.037 168.388 544.037 168.485 544.009 168.762H529.41C529.728 173.148 532.856 175.695 536.315 175.695C539.041 175.695 540.91 174.491 542.363 172.927L543.539 173.965C541.74 175.902 539.636 177.272 536.26 177.272C531.596 177.286 527.597 173.605 527.597 168.111ZM542.197 167.253C541.961 163.697 539.913 160.417 535.872 160.417C532.385 160.417 529.701 163.351 529.382 167.253H542.197ZM535.264 152.128H536.647L540.093 156.335H538.474L535.914 153.982L533.354 156.335H531.804L535.264 152.128Z" fill="black"/>
<path d="M550.735 159.269H552.424V162.548C553.6 160.472 555.565 158.853 558.775 158.853C563.231 158.853 565.819 161.898 565.819 166.105V176.871H564.131V166.409C564.131 162.783 562.097 160.403 558.54 160.403C555.094 160.403 552.424 163.033 552.424 166.686V176.871H550.735V159.269V159.269Z" fill="black"/>
<path d="M550.735 159.269H552.424V162.548C553.6 160.472 555.565 158.853 558.775 158.853C563.231 158.853 565.819 161.898 565.819 166.105V176.871H564.131V166.409C564.131 162.783 562.097 160.403 558.54 160.403C555.094 160.403 552.424 163.033 552.424 166.686V176.871H550.735V159.269V159.269Z" fill="black"/>
<path d="M572.448 168.139V168.07C572.448 163.129 576.378 158.853 581.429 158.853C584.75 158.853 586.812 160.376 588.472 162.092L587.269 163.337C585.746 161.787 584.03 160.431 581.401 160.431C577.402 160.431 574.288 163.78 574.288 167.987V168.056C574.288 172.304 577.499 175.681 581.539 175.681C584.03 175.681 585.954 174.408 587.448 172.747L588.625 173.785C586.826 175.819 584.695 177.272 581.443 177.272C576.35 177.286 572.448 173.079 572.448 168.139Z" fill="black"/>
<path d="M572.448 168.139V168.07C572.448 163.129 576.378 158.853 581.429 158.853C584.75 158.853 586.812 160.376 588.472 162.092L587.269 163.337C585.746 161.787 584.03 160.431 581.401 160.431C577.402 160.431 574.288 163.78 574.288 167.987V168.056C574.288 172.304 577.499 175.681 581.539 175.681C584.03 175.681 585.954 174.408 587.448 172.747L588.625 173.785C586.826 175.819 584.695 177.272 581.443 177.272C576.35 177.286 572.448 173.079 572.448 168.139Z" fill="black"/>
<path d="M595.17 152.363H597.273V154.674H595.17V152.363ZM595.377 159.269H597.066V176.871H595.377V159.269Z" fill="black"/>
<path d="M595.17 152.363H597.273V154.674H595.17V152.363ZM595.377 159.269H597.066V176.871H595.377V159.269Z" fill="black"/>
<path d="M604.041 171.765V171.695C604.041 168.042 607.182 165.966 611.735 165.966C614.184 165.966 615.872 166.271 617.574 166.727V165.966C617.574 162.41 615.402 160.583 611.776 160.583C609.631 160.583 607.874 161.164 606.255 161.995L605.632 160.514C607.569 159.615 609.465 158.992 611.873 158.992C614.253 158.992 616.149 159.642 617.436 160.929C618.612 162.105 619.235 163.725 619.235 165.897V176.871H617.574V173.937C616.37 175.626 614.198 177.286 610.849 177.286C607.569 177.286 604.041 175.432 604.041 171.765ZM617.602 170.284V168.277C616.121 167.904 614.156 167.489 611.624 167.489C607.901 167.489 605.826 169.149 605.826 171.599V171.668C605.826 174.228 608.247 175.709 610.932 175.709C614.53 175.709 617.602 173.494 617.602 170.284Z" fill="black"/>
<path d="M604.041 171.765V171.695C604.041 168.042 607.182 165.966 611.735 165.966C614.184 165.966 615.872 166.271 617.574 166.727V165.966C617.574 162.41 615.402 160.583 611.776 160.583C609.631 160.583 607.874 161.164 606.255 161.995L605.632 160.514C607.569 159.615 609.465 158.992 611.873 158.992C614.253 158.992 616.149 159.642 617.436 160.929C618.612 162.105 619.235 163.725 619.235 165.897V176.871H617.574V173.937C616.37 175.626 614.198 177.286 610.849 177.286C607.569 177.286 604.041 175.432 604.041 171.765ZM617.602 170.284V168.277C616.121 167.904 614.156 167.489 611.624 167.489C607.901 167.489 605.826 169.149 605.826 171.599V171.668C605.826 174.228 608.247 175.709 610.932 175.709C614.53 175.709 617.602 173.494 617.602 170.284Z" fill="black"/>
<path d="M625.559 174.671L626.555 173.328C628.492 174.809 630.623 175.639 632.865 175.639C635.245 175.639 637.114 174.325 637.114 172.291V172.221C637.114 170.146 634.899 169.384 632.45 168.706C629.586 167.876 626.417 167.018 626.417 163.877V163.808C626.417 160.985 628.797 158.937 632.215 158.937C634.318 158.937 636.698 159.698 638.456 160.874L637.556 162.285C635.937 161.22 634 160.528 632.132 160.528C629.71 160.528 628.132 161.843 628.132 163.6V163.669C628.132 165.634 630.513 166.368 633.031 167.087C635.854 167.876 638.829 168.914 638.829 172.028V172.097C638.829 175.238 636.145 177.245 632.754 177.245C630.208 177.217 627.413 176.193 625.559 174.671Z" fill="black"/>
<path d="M625.559 174.671L626.555 173.328C628.492 174.809 630.623 175.639 632.865 175.639C635.245 175.639 637.114 174.325 637.114 172.291V172.221C637.114 170.146 634.899 169.384 632.45 168.706C629.586 167.876 626.417 167.018 626.417 163.877V163.808C626.417 160.985 628.797 158.937 632.215 158.937C634.318 158.937 636.698 159.698 638.456 160.874L637.556 162.285C635.937 161.22 634 160.528 632.132 160.528C629.71 160.528 628.132 161.843 628.132 163.6V163.669C628.132 165.634 630.513 166.368 633.031 167.087C635.854 167.876 638.829 168.914 638.829 172.028V172.097C638.829 175.238 636.145 177.245 632.754 177.245C630.208 177.217 627.413 176.193 625.559 174.671Z" fill="black"/>
<defs>
<linearGradient id="paint0_linear" x1="152.817" y1="15.1252" x2="32.1225" y2="197.905" gradientUnits="userSpaceOnUse">
<stop offset="0.0465" stop-color="#FF8514"/>
<stop offset="0.5115" stop-color="#FF630B"/>
<stop offset="1" stop-color="#FF3A00"/>
</linearGradient>
</defs>
</svg>
