<svg width="177" height="221" viewBox="0 0 177 221" fill="none" xmlns="http://www.w3.org/2000/svg">
<path d="M159.45 89.91L159.97 89.12C164.08 82.87 162.34 74.47 156.08 70.36L153.17 68.45L165.32 49.96L164.67 49.54L176.26 31.89L164.07 23.88C164.5 21.58 163.54 19.14 161.47 17.77L154.02 12.88L146.57 7.99C144.49 6.63 141.87 6.72 139.93 8.03L127.75 0L116.16 17.65L115.51 17.23L103.36 35.72L100.45 33.81C94.1999 29.7 85.7999 31.44 81.6899 37.7L81.1699 38.49C78.0999 36.47 73.9699 37.33 71.9499 40.4L42.1599 85.75C40.1399 88.82 40.9999 92.95 44.0699 94.97L6.66992 151.9C6.66992 151.9 -5.28008 170.82 2.79992 176.13L0.399922 181.56L4.51992 184.27L7.71992 179.4C10.1099 180.96 12.4099 182.44 12.4099 182.44L16.5999 180.31L16.9499 180.13C30.0399 173.23 42.8599 164.06 54.8499 152.96L56.3299 151.6C55.8699 151.51 55.4099 151.44 54.9299 151.4L47.5999 150.74C45.9799 150.59 45.0899 149.21 45.7199 147.71C46.0099 147.03 46.6099 146.55 47.3199 146.42L59.4599 144.14L81.2999 108.17L52.3499 101.78C50.3399 101.34 49.3999 99.01 50.5499 97.29C51.0799 96.49 51.9899 96.02 52.9499 95.98L64.9199 95.51L68.6899 89.77C69.1899 89 69.9599 88.51 70.7999 88.34C71.6299 88.16 72.5399 88.31 73.2999 88.82C74.8399 89.83 75.2599 91.9 74.2499 93.43L73.0899 95.19L77.1799 95.03L80.9399 89.31C81.9599 87.75 84.1099 87.26 85.6499 88.32C87.1499 89.34 87.5499 91.37 86.5499 92.89L85.3599 94.7L90.5499 94.49L103.57 75.93C105.45 73.25 107.99 71.17 110.91 69.85C112.76 69.01 114.75 69.38 116.18 70.48C117.76 71.35 118.89 73.03 118.85 75.06C118.8 78.26 117.89 81.42 116.18 84.21L104.32 103.53L106.19 108.37L107.38 106.56C108.38 105.04 110.41 104.6 111.94 105.57C113.52 106.57 113.92 108.72 112.9 110.28L109.14 116L110.62 119.82L111.78 118.06C112.79 116.52 114.85 116.09 116.39 117.1C117.16 117.6 117.65 118.37 117.82 119.21C117.99 120.04 117.85 120.94 117.34 121.71L113.57 127.45L117.89 138.62C118.23 139.52 118.17 140.54 117.64 141.35C116.52 143.08 114.01 143.15 112.8 141.48L95.4399 117.45L71.1099 151.78L73.8299 163.82C73.9899 164.52 73.7899 165.27 73.2799 165.8C72.1599 166.98 70.5399 166.71 69.7599 165.28L66.2399 158.81C66.0099 158.39 65.7599 158 65.4999 157.61L64.8299 159.51C59.3999 174.93 56.0799 190.34 54.9399 205.09L54.9199 205.49L54.6299 210.18C54.6299 210.18 56.8999 211.7 59.2799 213.27L56.0799 218.14L60.1999 220.85L64.2299 216.49C72.3099 221.8 84.9299 203.32 84.9299 203.32L122.33 146.39C125.4 148.41 129.53 147.55 131.55 144.48L161.34 99.13C163.38 96.06 162.52 91.93 159.45 89.91ZM160.8 46.98L160.15 46.55L148 65.05L144.23 62.57L145.68 60.37L129.72 49.89L113.76 39.41L112.31 41.61L108.54 39.13L120.69 20.64L120.04 20.21L129.09 6.44L137.4 11.9C136.97 14.2 137.93 16.64 140.01 18.01L147.46 22.9L154.91 27.79C156.99 29.15 159.61 29.06 161.55 27.76L169.86 33.22L160.8 46.98Z" fill="url(#paint0_linear)"/>
<defs>
<linearGradient id="paint0_linear" x1="152.813" y1="15.1252" x2="32.1181" y2="197.905" gradientUnits="userSpaceOnUse">
<stop offset="0.0465" stop-color="#FF8514"/>
<stop offset="0.5115" stop-color="#FF630B"/>
<stop offset="1" stop-color="#FF3A00"/>
</linearGradient>
</defs>
</svg>
