<svg width="113" height="111" viewBox="0 0 113 111" fill="none" xmlns="http://www.w3.org/2000/svg">
<path d="M53.2376 55.236C52.3746 56.0758 52.3746 57.4398 53.2376 58.2821C54.1005 59.1244 55.4972 59.1244 56.3584 58.2821C57.2214 57.4398 57.2214 56.0758 56.3584 55.236C55.4972 54.3937 54.1005 54.3937 53.2376 55.236Z" fill="#333333"/>
<path d="M88.3313 6.29614C84.544 9.15547 83.5121 10.6293 70.0802 23.5926L62.028 22.3138L65.7231 18.7104C68.3112 16.1865 68.312 12.1031 65.7231 9.5792C63.1359 7.05616 58.946 7.05532 56.3587 9.5792L45.9219 19.7571L9.42147 13.962C7.06271 13.5887 4.64963 14.3495 2.9616 15.9957C-0.284283 19.1611 0.15626 24.398 3.85907 27.011L40.2328 52.6988L33.4229 59.3406C31.0891 61.6165 28.633 64.7465 26.1087 68.6551L9.14559 63.7906C6.64199 63.0734 3.93838 63.7452 2.08913 65.5452C-1.05933 68.6156 -0.583439 73.7146 3.07368 76.1847L16.9797 85.5723C14.5588 90.7824 13.0872 94.5497 13.0191 94.7237C12.7105 95.5157 12.9079 96.4111 13.5217 97.0097C14.139 97.6116 15.058 97.7991 15.8658 97.4998C16.0443 97.4342 19.9074 95.9983 25.25 93.6375L34.8773 107.199C37.4145 110.772 42.6433 111.224 45.7883 108.157C47.6332 106.355 48.3221 103.719 47.5858 101.277L42.5984 84.7358C46.609 82.2725 49.817 79.8772 52.1499 77.603L58.9606 70.9612L85.301 106.433C87.9848 110.049 93.3549 110.47 96.5973 107.308C98.2845 105.663 99.0647 103.308 98.6828 101.007L92.7402 65.414L103.176 55.237C105.764 52.7131 105.764 48.6271 103.176 46.1041C100.589 43.5802 96.4016 43.5802 93.8136 46.1041L90.1176 49.7075L88.8072 41.855C102.114 28.7429 103.601 27.7601 106.535 24.0667C106.538 24.0625 106.543 24.0575 106.546 24.0524C113.354 15.4492 114.947 6.76022 110.508 2.4296C106.068 -1.89766 97.1569 -0.345665 88.3313 6.29614ZM59.4796 12.6235C60.3417 11.7819 61.7392 11.7819 62.6022 12.6235C63.4652 13.4651 63.4643 14.8245 62.6022 15.6661L56.6588 21.4613L51.2903 20.6088L59.4796 12.6235ZM6.44715 23.5236C4.93672 22.4584 4.76343 20.3255 6.08334 19.0391C6.77045 18.3682 7.75499 18.058 8.71367 18.2102L66.2343 27.3431L43.3942 49.6158L6.44715 23.5236ZM5.21001 68.5903C5.91522 67.9035 6.94632 67.6462 7.90069 67.9203L23.7663 72.4703C22.1438 75.2414 20.5066 78.3025 18.8738 81.6158L5.58676 72.646C4.19271 71.7044 4.00994 69.7598 5.21001 68.5903ZM42.6657 105.115C41.476 106.275 39.4793 106.119 38.506 104.749L29.308 91.7904C32.7082 90.1964 35.848 88.599 38.6861 87.0201L43.3511 102.491C43.6321 103.423 43.3692 104.428 42.6657 105.115ZM96.9353 49.1475C97.7974 48.3068 99.1923 48.3059 100.055 49.1475C100.918 49.9891 100.917 51.3511 100.055 52.1927L91.866 60.178L90.9927 54.9427L96.9353 49.1475ZM94.3257 101.697C94.4817 102.634 94.1636 103.594 93.4765 104.264C92.1635 105.545 89.9745 105.388 88.8771 103.909L62.1212 67.8791L84.9613 45.6055L94.3257 101.697ZM49.029 74.5587C46.6004 76.9279 43.0459 79.4854 38.4646 82.1615C32.509 85.6396 25.4612 88.9336 19.1039 91.5668C21.8774 85.199 25.319 78.2151 28.9623 72.3409C31.6271 68.0413 34.1781 64.691 36.5446 62.384C90.4565 9.93567 87.2623 12.6412 90.534 10.0895C94.1636 9.86337 97.3586 10.9143 99.5829 13.0834C101.807 15.2525 102.886 18.3691 102.654 21.9077C100.031 25.1059 102.773 22.0212 49.029 74.5587ZM106.431 16.2521C105.725 13.8796 104.473 11.7643 102.705 10.0399C100.936 8.31642 98.7673 7.09399 96.3353 6.40627C99.5294 4.82653 104.908 3.05763 107.387 5.47306C109.344 7.38236 108.858 11.5852 106.431 16.2521Z" fill="#333333"/>
<path d="M65.7233 43.06L59.4816 49.1489C58.6194 49.99 58.6194 51.3534 59.4816 52.1946C60.3437 53.0357 61.7403 53.0348 62.6033 52.1946L68.8442 46.1049C69.7063 45.2646 69.7063 43.9012 68.8442 43.06C67.9821 42.2189 66.5854 42.2189 65.7233 43.06Z" fill="#333333"/>
<path d="M78.2087 30.8843L71.9643 36.9757C71.103 37.8168 71.103 39.1803 71.9643 40.0214C72.8273 40.8617 74.2239 40.8617 75.0861 40.0214L81.3295 33.93C82.1917 33.0888 82.1917 31.7254 81.3295 30.8843C80.4674 30.0431 79.0708 30.0431 78.2087 30.8843Z" fill="#333333"/>
</svg>
