<svg width="114" height="114" viewBox="0 0 114 114" fill="none" xmlns="http://www.w3.org/2000/svg">
<path d="M83.6 72.2H30.4C29.3507 72.2 28.5 73.0507 28.5 74.1V104.5C28.5 105.549 29.3507 106.4 30.4 106.4H83.6C84.6493 106.4 85.5 105.549 85.5 104.5V74.1C85.5 73.0507 84.6493 72.2 83.6 72.2ZM81.5952 76C80.6173 84.6502 73.3049 91.1898 64.6 91.2H58.9V89.3C58.9 88.2507 58.0493 87.4 57 87.4C55.9507 87.4 55.1 88.2507 55.1 89.3V91.2H49.4C40.6951 91.1898 33.3827 84.6502 32.4048 76H81.5952ZM81.7 102.6H32.3V86.0798C36.203 91.6648 42.5858 94.9944 49.4 95H55.1V96.9C55.1 97.9492 55.9507 98.8 57 98.8C58.0493 98.8 58.9 97.9492 58.9 96.9V95H64.6C71.4142 94.9944 77.797 91.6648 81.7 86.0798V102.6Z" fill="#333333"/>
<path d="M102.6 68.4H96.8999V37.8098C101.321 36.9006 104.494 33.0125 104.5 28.5V17.1C104.493 11.8555 100.244 7.60649 94.9999 7.6H72.0097C71.1005 3.17935 67.2124 0.00556641 62.6999 0H51.2999C46.7874 0.00556641 42.8993 3.17935 41.9901 7.6H18.9999C13.7554 7.60649 9.5064 11.8555 9.4999 17.1V28.5C9.50547 33.0125 12.6792 36.9006 17.0999 37.8098V68.4H11.3999C6.15542 68.4065 1.9064 72.6555 1.8999 77.9V93.1C1.9064 98.3445 6.15542 102.594 11.3999 102.6H17.0999V104.5C17.1064 109.744 21.3554 113.994 26.5999 114H87.3999C92.6444 113.994 96.8934 109.744 96.8999 104.5V102.6H102.6C107.844 102.594 112.093 98.3445 112.1 93.1V77.9C112.093 72.6555 107.844 68.4065 102.6 68.4ZM100.7 17.1V28.5C100.7 31.6478 98.1477 34.2 94.9999 34.2H85.4999V11.4H94.9999C98.1477 11.4 100.7 13.9522 100.7 17.1ZM81.6999 11.4V34.2H77.8999V11.4H81.6999ZM77.8999 53.2H81.6999V55.1C81.6999 56.1493 80.8492 57 79.7999 57C78.7506 57 77.8999 56.1493 77.8999 55.1V53.2ZM77.8999 49.4V38H81.6999V49.4H77.8999ZM74.0999 11.4V34.2H39.8999V11.4H74.0999ZM51.2999 3.8H62.6999C65.1148 3.80278 67.2671 5.32427 68.0752 7.6H45.9246C46.7327 5.32427 48.885 3.80278 51.2999 3.8ZM36.0999 11.4V34.2H32.2999V11.4H36.0999ZM32.2999 53.2H36.0999V55.1C36.0999 56.1493 35.2492 57 34.1999 57C33.1506 57 32.2999 56.1493 32.2999 55.1V53.2ZM32.2999 49.4V38H36.0999V49.4H32.2999ZM13.2999 28.5V17.1C13.2999 13.9522 15.8521 11.4 18.9999 11.4H28.4999V34.2H18.9999C15.8521 34.2 13.2999 31.6478 13.2999 28.5ZM11.3999 98.8C8.2521 98.8 5.6999 96.2478 5.6999 93.1V77.9C5.6999 74.7522 8.2521 72.2 11.3999 72.2H17.0999V98.8H11.3999ZM93.0999 104.5C93.0999 107.648 90.5477 110.2 87.3999 110.2H26.5999C23.4521 110.2 20.8999 107.648 20.8999 104.5V38H28.4999V49.4H26.5999C25.5506 49.4 24.6999 50.2507 24.6999 51.3C24.6999 52.3493 25.5506 53.2 26.5999 53.2H28.4999V55.1C28.4999 58.2478 31.0521 60.8 34.1999 60.8C37.3477 60.8 39.8999 58.2478 39.8999 55.1V53.2H41.7999C42.8492 53.2 43.6999 52.3493 43.6999 51.3C43.6999 50.2507 42.8492 49.4 41.7999 49.4H39.8999V38H74.0999V49.4H72.1999C71.1506 49.4 70.2999 50.2507 70.2999 51.3C70.2999 52.3493 71.1506 53.2 72.1999 53.2H74.0999V55.1C74.0999 58.2478 76.6521 60.8 79.7999 60.8C82.9477 60.8 85.4999 58.2478 85.4999 55.1V53.2H87.3999C88.4492 53.2 89.2999 52.3493 89.2999 51.3C89.2999 50.2507 88.4492 49.4 87.3999 49.4H85.4999V38H93.0999V104.5ZM108.3 93.1C108.3 96.2478 105.748 98.8 102.6 98.8H96.8999V72.2H102.6C105.748 72.2 108.3 74.7522 108.3 77.9V93.1Z" fill="#333333"/>
</svg>
