<svg width="25" height="16" viewBox="0 0 25 16" fill="none" xmlns="http://www.w3.org/2000/svg">
<path d="M22.4758 6.20253V6.17722V2.35443C22.4758 0.632912 21.1976 0 19.9992 0H4.82005C3.62169 0 2.34345 0.607595 2.34345 2.35443V6.17722V6.20253C1.14509 6.32911 0 7.08861 0 8.83544V11.8228C0 12.3291 0.426081 12.7342 0.958683 12.7342H1.27824V15.0886C1.27824 15.5949 1.70433 16 2.23693 16H3.14235C3.67495 16 4.10103 15.5949 4.10103 15.0886V12.7089H20.7981V15.0886C20.7981 15.5949 21.2242 16 21.7568 16H22.6622C23.1948 16 23.6209 15.5949 23.6209 15.0886V12.7089H23.9405C24.4731 12.7089 24.8991 12.3038 24.8991 11.7975V8.83544C24.8192 7.08861 23.6742 6.32911 22.4758 6.20253ZM3.24887 2.35443H3.30213C3.30213 1.16456 4.12766 0.911393 4.82005 0.911393H19.9992C20.6916 0.911393 21.5171 1.16456 21.5171 2.35443V6.17722H20.7981V4C20.7981 3.49367 20.372 3.08861 19.8394 3.08861H13.9808C13.4482 3.08861 13.0221 3.49367 13.0221 4V6.17722H11.9037V4C11.9037 3.49367 11.4776 3.08861 10.945 3.08861H5.08635C4.55375 3.08861 4.12766 3.49367 4.12766 4V6.17722H3.24887V2.35443ZM19.8394 4V6.17722H13.9808V4H19.8394ZM10.9982 4V6.17722H5.13961V4H10.9982ZM3.11572 15.0886H2.2103V12.7089H3.11572V15.0886ZM22.6089 15.0886H21.7035V12.7089H22.6089V15.0886ZM23.8606 11.8228H22.6089H21.7035H3.11572H2.2103H0.932053V10.481H23.8606V11.8228ZM23.8606 9.56962H0.932053V8.83544C0.932053 7.31646 2.10378 7.08861 2.76953 7.08861H3.2755H5.11298H10.9716H13.9808H19.8394H21.5171H22.0231C22.7155 7.08861 23.8606 7.31646 23.8606 8.83544V9.56962Z" fill="#303030"/>
</svg>
