<svg width="27" height="30" viewBox="0 0 27 30" fill="none" xmlns="http://www.w3.org/2000/svg">
<path d="M22.9997 13.5917H4.25924C2.78066 13.5917 1.58203 14.7903 1.58203 16.2689V25.6391C1.58203 27.1177 2.78066 28.3163 4.25924 28.3163H22.9997C24.4783 28.3163 25.6769 27.1177 25.6769 25.6391V16.2689C25.6769 14.7903 24.4783 13.5917 22.9997 13.5917Z" stroke="#888888" stroke-width="3" stroke-linecap="round" stroke-linejoin="round"/>
<path d="M6.93652 13.5916V8.23722C6.93652 6.46212 7.64168 4.75972 8.89687 3.50453C10.1521 2.24935 11.8544 1.54419 13.6296 1.54419C15.4047 1.54419 17.107 2.24935 18.3622 3.50453C19.6174 4.75972 20.3226 6.46212 20.3226 8.23722V13.5916" stroke="#888888" stroke-width="3" stroke-linecap="round" stroke-linejoin="round"/>
</svg>
