<svg width="31" height="22" viewBox="0 0 31 22" fill="none" xmlns="http://www.w3.org/2000/svg">
<path fill-rule="evenodd" clip-rule="evenodd" d="M0 2.2V19.8C0 21.01 0.996428 22 2.21429 22H28.7857C30.0036 22 31 21.01 31 19.8V2.2C31 0.99 30.0036 0 28.7857 0H2.21429C0.996428 0 0 0.99 0 2.2ZM28.7857 2.2L15.5 13.2L2.21429 2.2H28.7857ZM2.21429 5.5L11.0714 12.1L2.21429 18.7V5.5ZM4.42857 19.8L12.1786 13.2L15.5 16.5L18.8214 13.2L26.5714 19.8H4.42857ZM28.7857 18.7L19.9286 12.1L28.7857 5.5V18.7Z" fill="#888888"/>
</svg>
