<svg width="27" height="32" viewBox="0 0 27 32" fill="none" xmlns="http://www.w3.org/2000/svg">
<path d="M24.1071 29.75H24.8571V29V27.4C24.8571 24.0367 22.2084 21.25 18.9 21.25C18.5555 21.25 18.2072 21.3448 17.8999 21.4395C17.752 21.485 17.6181 21.5289 17.4814 21.5738C17.285 21.6382 17.0828 21.7045 16.8245 21.7805C16.0268 22.0152 14.9707 22.25 13.5 22.25C12.0418 22.25 10.984 22.0153 10.1814 21.7802C9.9221 21.7043 9.71821 21.6378 9.52059 21.5734C9.38287 21.5285 9.24819 21.4846 9.09992 21.4392C8.79198 21.3448 8.44277 21.25 8.1 21.25C4.79156 21.25 2.14286 24.0367 2.14286 27.4V29V29.75H2.89286H24.1071ZM13.5 20.75C15.0234 20.75 16.022 20.4783 16.845 20.2141C16.9461 20.1817 17.0425 20.1502 17.1351 20.12C17.7984 19.9034 18.2683 19.75 18.9 19.75C22.9322 19.75 26.25 23.1508 26.25 27.4V29C26.25 30.268 25.2646 31.25 24.1071 31.25H2.89286C1.73545 31.25 0.75 30.268 0.75 29V27.4C0.75 23.1508 4.06781 19.75 8.1 19.75C8.73506 19.75 9.20595 19.9039 9.86955 20.1207C9.96137 20.1507 10.0569 20.1819 10.157 20.2141C10.9793 20.4782 11.9765 20.75 13.5 20.75ZM21.4286 9C21.4286 13.5805 17.8516 17.25 13.5 17.25C9.14839 17.25 5.57143 13.5805 5.57143 9C5.57143 4.41952 9.14839 0.75 13.5 0.75C17.8516 0.75 21.4286 4.41952 21.4286 9ZM20.0357 9C20.0357 5.30548 17.1279 2.25 13.5 2.25C9.87214 2.25 6.96429 5.30548 6.96429 9C6.96429 12.6945 9.87214 15.75 13.5 15.75C17.1279 15.75 20.0357 12.6945 20.0357 9Z" stroke="#888888" stroke-width="1.5"/>
</svg>
