<svg width="223" height="293" viewBox="0 0 223 293" fill="none" xmlns="http://www.w3.org/2000/svg">
<path fill-rule="evenodd" clip-rule="evenodd" d="M195.418 184.919C212.592 165.305 223 139.618 223 111.5C223 49.9202 173.08 0 111.5 0C49.9202 0 0 49.9202 0 111.5C0 139.618 10.4082 165.305 27.5821 184.919L111.5 293L195.418 184.919Z" fill="url(#paint0_linear)"/>
<path d="M166.03 110.616L166.431 110.004C169.602 105.165 168.26 98.6607 163.43 95.4784L161.184 93.9995L170.559 79.6831L170.058 79.3579L179 65.6918L169.595 59.4898C169.926 57.709 169.186 55.8197 167.589 54.759L161.84 50.9727L156.092 47.1865C154.487 46.1335 152.466 46.2032 150.969 47.2175L141.571 41L132.629 54.6661L132.127 54.3409L122.753 68.6573L120.507 67.1784C115.685 63.9962 109.204 65.3434 106.033 70.1904L105.632 70.8021C103.263 69.238 100.076 69.9039 98.5177 72.281L75.5327 107.395C73.9741 109.772 74.6376 112.969 77.0064 114.533L48.1497 158.613C48.1497 158.613 38.9294 173.263 45.1637 177.374L43.312 181.578L46.4908 183.677L48.9598 179.906C50.8039 181.114 52.5785 182.26 52.5785 182.26L55.8114 180.611L56.0814 180.471C66.1812 175.129 76.0728 168.029 85.3239 159.434L86.4658 158.381C86.1109 158.311 85.7559 158.257 85.3856 158.226L79.73 157.715C78.4801 157.599 77.7934 156.53 78.2794 155.369C78.5032 154.843 78.9661 154.471 79.514 154.37L88.8808 152.605L105.732 124.754L83.3949 119.806C81.8441 119.466 81.1188 117.662 82.0061 116.33C82.4151 115.71 83.1172 115.346 83.8579 115.316L93.0936 114.952L96.0024 110.507C96.3882 109.911 96.9823 109.532 97.6304 109.4C98.2708 109.261 98.9729 109.377 99.5593 109.772C100.748 110.554 101.072 112.156 100.292 113.341L99.3973 114.704L102.553 114.58L105.454 110.151C106.241 108.943 107.9 108.564 109.088 109.385C110.246 110.174 110.554 111.746 109.783 112.923L108.864 114.324L112.869 114.162L122.915 99.7912C124.365 97.7161 126.325 96.1056 128.578 95.0835C130.005 94.4331 131.541 94.7196 132.644 95.5713C133.863 96.245 134.735 97.5458 134.704 99.1175C134.666 101.595 133.964 104.042 132.644 106.202L123.493 121.161L124.936 124.909L125.854 123.507C126.626 122.33 128.192 121.99 129.373 122.741C130.592 123.515 130.9 125.18 130.113 126.388L127.212 130.817L128.354 133.774L129.249 132.412C130.029 131.219 131.618 130.886 132.806 131.668C133.4 132.055 133.778 132.652 133.91 133.302C134.041 133.945 133.933 134.642 133.539 135.238L130.63 139.682L133.964 148.331C134.226 149.028 134.18 149.817 133.771 150.445C132.906 151.784 130.97 151.838 130.036 150.545L116.642 131.939L97.8696 158.52L99.9682 167.843C100.092 168.385 99.9374 168.965 99.5439 169.376C98.6797 170.289 97.4298 170.08 96.828 168.973L94.112 163.964C93.9346 163.638 93.7417 163.336 93.5411 163.034L93.0241 164.506C88.8345 176.445 86.2729 188.377 85.3933 199.797L85.3779 200.107L85.1541 203.738C85.1541 203.738 86.9056 204.915 88.7419 206.131L86.2729 209.902L89.4518 212L92.5612 208.624C98.7955 212.736 108.533 198.427 108.533 198.427L137.389 154.347C139.758 155.911 142.945 155.245 144.503 152.868L167.488 117.754C169.062 115.377 168.399 112.18 166.03 110.616ZM167.072 77.3757L166.57 77.0428L157.195 91.367L154.287 89.4468L155.405 87.7434L143.091 79.6289L130.777 71.5144L129.658 73.2178L126.749 71.2976L136.124 56.9812L135.622 56.6482L142.605 45.9864L149.017 50.2139C148.685 51.9948 149.426 53.884 151.031 54.9448L156.779 58.731L162.527 62.5173C164.132 63.5703 166.153 63.5006 167.65 62.494L174.062 66.7216L167.072 77.3757Z" fill="white"/>
<defs>
<linearGradient id="paint0_linear" x1="111.5" y1="293" x2="111.5" y2="148" gradientUnits="userSpaceOnUse">
<stop stop-color="#FF3D01"/>
<stop offset="0.515625" stop-color="#FF630B"/>
<stop offset="1" stop-color="#FF8514"/>
</linearGradient>
</defs>
</svg>
