<svg width="114" height="117" viewBox="0 0 114 117" fill="none" xmlns="http://www.w3.org/2000/svg">
<path d="M57.0202 6.20412e-07C34.2131 -0.00338304 13.6005 13.8341 4.62363 35.1746L3.91318 35.4144L4.18862 36.2555C-7.63071 65.9268 6.419 99.7328 35.5698 111.763C42.3783 114.573 49.6564 116.015 57.0033 116.011C88.4769 116.016 113.995 90.0499 114 58.0144C114.005 25.9788 88.494 0.00459274 57.0202 6.20412e-07ZM101.721 87.2512L98.7946 84.2745V77.3409C98.7979 77.0417 98.7329 76.7459 98.6047 76.4766L91.1962 61.4164V54.1386C91.1962 53.4923 90.8792 52.8886 90.3509 52.5299L84.6521 48.6629C84.2054 48.3593 83.6533 48.2624 83.1324 48.3961L76.1532 50.171L64.4308 45.0511L62.818 33.5505L67.2878 29.0028H76.8827L80.112 33.943C80.4036 34.3872 80.8631 34.6891 81.3809 34.7763L92.7786 36.7099C93.0839 36.7621 93.3969 36.7367 93.6904 36.6364L104.188 33.0748C112.992 50.2723 112.05 70.9564 101.721 87.2512ZM93.886 19.0529L90.7973 21.1489L82.1864 19.3952L76.5996 17.5022C76.2577 17.3841 75.8897 17.3691 75.5396 17.4597L68.4769 19.256L65.3806 18.206L67.6753 13.5347H74.0998C74.3944 13.5349 74.6851 13.4655 74.9489 13.3316L81.5215 9.98664C86.0478 12.3915 90.2117 15.4445 93.886 19.0529ZM36.197 8.1846L40.756 11.2782C40.9802 11.43 41.2333 11.5315 41.4988 11.576L50.7042 13.1383L49.8057 15.8742L45.0092 17.5042C44.5797 17.6497 44.2152 17.9465 43.9815 18.3414L38.5259 27.5952L29.763 32.9472L16.8457 34.8247C15.9094 34.9593 15.2132 35.7745 15.212 36.7369V42.5375C15.212 43.0504 15.4124 43.542 15.7686 43.9045L19.0112 47.205V50.5268L11.1089 45.1632L8.24238 36.4102C13.6961 23.7263 23.6921 13.6333 36.197 8.1846ZM30.7888 71.579L22.2026 69.8292L19.0112 63.3499V58.8062L26.0892 51.6018L28.7087 56.9364C29.0305 57.5919 29.6889 58.0059 30.4089 58.0057H42.6309L47.7769 66.7355C48.1203 67.3173 48.7381 67.673 49.4049 67.6733H54.6858L53.3561 74.4541L46.1642 81.7745C45.8073 82.1368 45.6064 82.6284 45.6057 83.1415V87.9753L38.7671 93.1958C38.2889 93.561 38.0073 94.134 38.0073 94.7426V101.726L35.6442 100.93L32.3085 92.4378V73.4739C32.3087 72.5549 31.6733 71.7627 30.7888 71.579ZM25.0786 101.302C7.16791 87.6253 -0.406519 63.9938 6.13382 42.1972L7.71239 47.0155C7.84536 47.4233 8.10798 47.7744 8.45893 48.0132L17.9285 54.4383L15.7686 56.6387C15.4124 57.0012 15.212 57.4928 15.212 58.0057V63.8062C15.2118 64.1062 15.2799 64.402 15.4115 64.6705L19.2107 72.4046C19.4738 72.9388 19.9646 73.3192 20.5404 73.4352L28.5188 75.0574V92.8091C28.5185 93.0546 28.5643 93.2983 28.6536 93.5264L32.4528 103.194C32.6608 103.722 33.0868 104.13 33.6173 104.31L39.3161 106.243C39.5065 106.309 39.706 106.343 39.9069 106.344C40.9559 106.344 41.8065 105.478 41.8065 104.41V95.7094L48.6451 90.4889C49.1233 90.1237 49.4049 89.5506 49.4049 88.942V83.9419L56.4467 76.7744C56.7115 76.5044 56.892 76.1605 56.9653 75.7864L58.8649 66.1187C59.0706 65.0715 58.4033 64.053 57.3745 63.8437C57.2522 63.8188 57.128 63.8062 57.0033 63.8062H50.4801L45.334 55.0764C44.9907 54.4946 44.3728 54.1389 43.7061 54.1386H31.5828L28.3193 47.4738C28.046 46.9174 27.5264 46.5288 26.9231 46.4297C26.32 46.3236 25.7043 46.5261 25.2761 46.9711L22.8104 49.4711V46.4045C22.8104 45.8917 22.61 45.4001 22.2539 45.0375L19.0112 41.737V38.4133L30.6786 36.7176C30.9291 36.6806 31.1701 36.5931 31.3872 36.4604L40.8852 30.6599C41.1516 30.497 41.3748 30.2698 41.5348 29.9986L46.8727 20.9439L51.9048 19.2347C52.473 19.045 52.9189 18.5913 53.1053 18.0127L55.0049 12.2121C55.334 11.1982 54.7934 10.1046 53.7973 9.76961C53.7054 9.73867 53.6111 9.71498 53.5156 9.69855L42.5207 7.8327L40.5888 6.52177C52.5428 2.56143 65.49 3.05158 77.122 7.90424L73.6514 9.66761H66.5013C65.7778 9.6635 65.1151 10.0782 64.7917 10.7368L60.9925 18.4709C60.5245 19.4266 60.9061 20.5877 61.8449 21.064C61.925 21.1046 62.0076 21.1394 62.0924 21.1682L67.7912 23.1017C68.1331 23.2199 68.5011 23.2349 68.8511 23.1443L75.9139 21.348L81.0884 23.1017C81.1625 23.1288 81.2387 23.1496 81.3163 23.1636L90.8144 25.0971C91.3083 25.1996 91.8221 25.0966 92.241 24.811L96.5645 21.8759C98.6923 24.2882 100.604 26.8888 102.278 29.6467L92.9324 32.8177L82.8132 31.1007L79.4699 25.9962C79.1195 25.4613 78.5306 25.1389 77.899 25.1358H66.5013C65.9975 25.1358 65.5145 25.3398 65.1583 25.7023L59.4595 31.5029C59.0364 31.9333 58.8372 32.5417 58.9219 33.1444L60.8215 46.6791C60.9172 47.3483 61.3494 47.918 61.9613 48.1814L75.2585 53.982C75.6394 54.15 76.0644 54.1845 76.4667 54.0806L83.2501 52.354L87.397 55.1731V61.8727C87.3937 62.1719 87.4587 62.4678 87.5869 62.737L94.9954 77.7972V85.075C94.9954 85.5879 95.1958 86.0795 95.552 86.442L99.526 90.4889C81.9017 114.4 48.5703 119.242 25.0786 101.302Z" fill="#333333"/>
</svg>
